SplineFontDB: 3.0
FontName: freewrl_wingding
FullName: freewrl_wingding
FamilyName: freewrl_wingding
Weight: Regular
Copyright: Copyright (c) 2015, Anonymous, MIT
UComments: "2015-1-27: Created with FontForge (http://fontforge.org)"
Version: 001.000
ItalicAngle: 0
UnderlinePosition: -102
UnderlineWidth: 51
Ascent: 1024
Descent: 0
InvalidEm: 0
LayerCount: 2
Layer: 0 0 "Back" 1
Layer: 1 0 "Fore" 0
XUID: [1021 647 -154654393 2458]
FSType: 0
OS2Version: 0
OS2_WeightWidthSlopeOnly: 0
OS2_UseTypoMetrics: 1
CreationTime: 1422391944
ModificationTime: 1458508190
OS2TypoAscent: 0
OS2TypoAOffset: 1
OS2TypoDescent: 0
OS2TypoDOffset: 1
OS2TypoLinegap: 92
OS2WinAscent: 0
OS2WinAOffset: 1
OS2WinDescent: 0
OS2WinDOffset: 1
HheadAscent: 0
HheadAOffset: 1
HheadDescent: 0
HheadDOffset: 1
OS2CapHeight: 0
OS2XHeight: 0
MarkAttachClasses: 1
DEI: 91125
LangName: 1033
DesignSize: 250
Encoding: ISO8859-1
UnicodeInterp: none
NameList: AGL For New Fonts
DisplaySize: -48
AntiAlias: 1
FitToEm: 1
WinInfo: 48 16 7
BeginPrivate: 0
EndPrivate
BeginChars: 256 30

StartChar: A
Encoding: 65 65 0
Width: 1024
VWidth: 0
Flags: W
LayerCount: 2
Back
Fore
SplineSet
731 745 m 0
 750 763 777 769 790 759 c 0
 804 749 799 727 780 709 c 0
 760 691 734 685 720 695 c 0
 707 705 711 727 731 745 c 0
645 833 m 0
 668 856 698 864 714 851 c 0
 730 838 724 809 702 786 c 0
 679 763 649 755 633 768 c 0
 618 781 623 810 645 833 c 0
801 662 m 0
 815 675 833 679 843 672 c 0
 853 665 849 650 836 638 c 0
 822 625 803 621 794 628 c 0
 784 635 787 650 801 662 c 0
544 930 m 0
 571 960 607 970 626 954 c 0
 644 937 638 900 611 870 c 0
 585 840 548 830 530 846 c 0
 511 863 517 900 544 930 c 0
121 223 m 1
 471 809 l 1
 790 565 l 1
 247 103 l 1
 121 223 l 1
EndSplineSet
Validated: 33
EndChar

StartChar: B
Encoding: 66 66 1
Width: 1024
VWidth: 0
LayerCount: 2
Back
Fore
SplineSet
59 964 m 25
 480 953 l 25
 502 714 l 25
 755 838 l 25
 921 770 l 25
 797 754 l 25
 728 678 l 25
 672 538 l 25
 916 404 l 25
 823 36 l 25
 761 257 l 25
 489 369 l 25
 343 210 l 25
 339 33 l 25
 30 335 l 29
 197 336 l 25
 298 519 l 25
 298 829 l 25
 59 964 l 25
EndSplineSet
Validated: 1
EndChar

StartChar: C
Encoding: 67 67 2
Width: 1024
VWidth: 0
HStem: 87 108<274.833 381.167> 351 102<274.833 381.167>
VStem: 136 114<219.57 325.589> 406 114<219.57 325.589>
LayerCount: 2
Back
Fore
SplineSet
670.182617188 241.626953125 m 2
 910.200195312 321.6328125 l 2
 910.200195312 321.6328125 937.711914062 349.776367188 928.541015625 377.288085938 c 24
 919.686523438 403.8515625 880.791015625 409.860351562 880.791015625 409.860351562 c 2
 640.7734375 329.854492188 l 2
 640.7734375 329.854492188 616.740234375 300.76171875 624.962890625 276.095703125 c 0
 633.81640625 249.532226562 670.182617188 241.626953125 670.182617188 241.626953125 c 2
864.08984375 656.844726562 m 2
 572.901367188 468.116210938 l 2
 572.901367188 468.116210938 553.3203125 433.975585938 569.092773438 409.638671875 c 24
 584.323242188 386.142578125 623.484375 390.075195312 623.484375 390.075195312 c 2
 914.670898438 578.802734375 l 2
 914.670898438 578.802734375 930.646484375 612.990234375 916.504882812 634.80859375 c 0
 901.276367188 658.305664062 864.08984375 656.844726562 864.08984375 656.844726562 c 2
517.430664062 970.375976562 m 6
 339.061523438 638.241210938 l 6
 339.061523438 638.241210938 338.360351562 598.890625 363.909179688 585.169921875 c 28
 388.577148438 571.921875 420.994140625 594.240234375 420.994140625 594.240234375 c 6
 599.36328125 926.375976562 l 6
 599.36328125 926.375976562 596.883789062 964.030273438 573.977539062 976.331054688 c 4
 549.309570312 989.579101562 517.430664062 970.375976562 517.430664062 970.375976562 c 6
232.211914062 565.227539062 m 2
 174.4765625 704.75390625 l 2
 174.4765625 704.75390625 144.462890625 730.211914062 117.666015625 719.124023438 c 24
 91.7939453125 708.41796875 88.5439453125 669.1953125 88.5439453125 669.1953125 c 2
 146.278320312 529.668945312 l 2
 146.278320312 529.668945312 176.994140625 507.747070312 201.018554688 517.688476562 c 0
 226.890625 528.39453125 232.211914062 565.227539062 232.211914062 565.227539062 c 2
531.892578125 515.154296875 m 2
 816.125976562 816.1640625 l 2
 816.125976562 816.1640625 827.068359375 853.969726562 805.983398438 873.880859375 c 24
 785.624023438 893.103515625 748.5078125 880.013671875 748.5078125 880.013671875 c 2
 464.2734375 579.00390625 l 2
 464.2734375 579.00390625 456.845703125 542.006835938 475.75 524.15625 c 0
 496.107421875 504.932617188 531.892578125 515.154296875 531.892578125 515.154296875 c 2
250 273 m 0
 250 230 285 195 328 195 c 0
 371 195 406 230 406 273 c 0
 406 316 371 351 328 351 c 0
 285 351 250 316 250 273 c 0
  Spiro
    250 273 o
    260.646 233.701 o
    288.701 205.646 o
    328 195 o
    367.299 205.646 o
    395.354 233.701 o
    406 273 o
    395.354 312.299 o
    367.299 340.354 o
    328 351 o
    288.701 340.354 o
    260.646 312.299 o
    0 0 z
  EndSpiro
136 270 m 0
 136 371 222 453 328 453 c 0
 434 453 520 371 520 270 c 0
 520 169 434 87 328 87 c 0
 222 87 136 169 136 270 c 0
  Spiro
    136 270 o
    162.172 362.252 o
    231.196 428.048 o
    328 453 o
    424.804 428.048 o
    493.828 362.252 o
    520 270 o
    493.828 177.748 o
    424.804 111.952 o
    328 87 o
    231.196 111.952 o
    162.172 177.748 o
    0 0 z
  EndSpiro
EndSplineSet
Validated: 41
EndChar

StartChar: D
Encoding: 68 68 3
Width: 1024
VWidth: 0
HStem: 69 78<380.175 455.825> 240 72<16 88> 288 72<839 911> 480 78<214.175 289.825> 516 78<593.175 668.825> 813 84<497.402 576.598> 852 72<117.812 184.188> 933 72<705 777>
VStem: 13 78<243.53 308.47> 115 72<854.812 921.188> 210 84<484.614 553.386> 376 84<73.6143 142.386> 492 90<819.126 890.874> 589 84<520.614 589.386> 702 78<936.53 1001.47> 836 78<291.53 356.47>
LayerCount: 2
Back
Fore
SplineSet
836 324 m 0xa1ff
 836 344 853 360 875 360 c 0
 897 360 914 344 914 324 c 0
 914 304 897 288 875 288 c 0
 853 288 836 304 836 324 c 0xa1ff
589 555 m 0
 589 577 608 594 631 594 c 0
 654 594 673 577 673 555 c 0
 673 533 654 516 631 516 c 0x89ff
 608 516 589 533 589 555 c 0
376 108 m 0
 376 130 395 147 418 147 c 0
 441 147 460 130 460 108 c 0
 460 86 441 69 418 69 c 0
 395 69 376 86 376 108 c 0
13 276 m 0
 13 296 30 312 52 312 c 0
 74 312 91 296 91 276 c 0
 91 256 74 240 52 240 c 0xc1ff
 30 240 13 256 13 276 c 0
210 519 m 4
 210 541 229 558 252 558 c 4
 275 558 294 541 294 519 c 4
 294 497 275 480 252 480 c 4x91ff
 229 480 210 497 210 519 c 4
702 969 m 0
 702 989 719 1005 741 1005 c 0
 763 1005 780 989 780 969 c 0
 780 949 763 933 741 933 c 0
 719 933 702 949 702 969 c 0
492 855 m 0
 492 878 512 897 537 897 c 0
 562 897 582 878 582 855 c 0
 582 832 562 813 537 813 c 0x85ff
 512 813 492 832 492 855 c 0
115 888 m 0
 115 908 131 924 151 924 c 0
 171 924 187 908 187 888 c 0
 187 868 171 852 151 852 c 0x83ff
 131 852 115 868 115 888 c 0
EndSplineSet
Validated: 1
EndChar

StartChar: E
Encoding: 69 69 4
Width: 1024
VWidth: 0
Flags: W
HStem: 270 537<371.724 644.276>
VStem: 112 792<316.555 556.429>
LayerCount: 2
Back
Fore
SplineSet
112 438 m 4
 112 642 289 807 508 807 c 4
 727 807 904 642 904 438 c 4
 904 377.46875 888.416015625 320.372070312 860.776367188 270 c 5
 155.223632812 270 l 5
 127.583984375 320.372070312 112 377.46875 112 438 c 4
EndSplineSet
EndChar

StartChar: F
Encoding: 70 70 5
Width: 1024
VWidth: 0
Flags: W
HStem: 99.8604 75.1309<153.745 711.257> 216 267<453.629 551.662> 621 273<453.629 551.662>
VStem: 154 279<502.759 600.02> 571 273<502.759 600.02>
LayerCount: 2
Back
Fore
SplineSet
154 555 m 0
 154 742 309 894 499 894 c 0
 689 894 844 742 844 555 c 0
 844 368 689 216 499 216 c 0
 309 216 154 368 154 555 c 0
433 552 m 0
 433 514 464 483 502 483 c 0
 540 483 571 514 571 552 c 0
 571 590 540 621 502 621 c 0
 464 621 433 590 433 552 c 0
727.537109375 103.875976562 m 1
 727.537109375 102.860351562 l 1
 153.745117188 99.8603515625 l 1
 153.745117188 174.991210938 l 1
 711.256835938 174.991210938 l 5
 907.51171875 363.76953125 l 1
 951.766601562 312.130859375 l 1
 727.858398438 106.448242188 l 1
 727.537109375 103.875976562 l 1
EndSplineSet
EndChar

StartChar: G
Encoding: 71 71 6
Width: 1036
VWidth: 0
Flags: W
HStem: 84.6633 103.472<386.942 456 565 640.354> 460 89<40 100.763 193.166 349 676 834.834 921.235 964> 819.865 97.472<387.747 456 565 640.184>
VStem: 98.9433 94.0825<380.574 460 549 627.045> 456 109<24 87.2605 188.135 339 660 819.865 914.777 972> 834.974 88.0825<384.807 460 549 623.931>
LayerCount: 2
Back
Fore
SplineSet
565 24 m 1
 456 24 l 1
 456 84.663251661 l 1
 266.264280435 110.145670566 117.462164711 265.674818133 98.9432910591 460 c 1
 40 460 l 1
 40 549 l 1
 99.6684718089 549 l 1
 121.050226906 740.050413304 268.548046187 892.161050149 456 917.336748339 c 1
 456 972 l 1
 565 972 l 1
 565 917.469798612 l 1
 752.927182629 892.70169893 900.911765723 740.390017035 922.331528191 549 c 1
 964 549 l 1
 964 460 l 1
 923.056708941 460 l 1
 904.505313089 265.333551029 755.212675588 109.599520492 565 84.5302013879 c 1
 565 24 l 1
565 186.958992357 m 1
 705.303163049 208.96438306 815.60138806 320.284863983 834.974239907 460 c 1
 676 460 l 1
 676 549 l 1
 834.833959501 549 l 1
 815.074660701 688.246063719 704.968264057 799.088143077 565 821.041007643 c 1
 565 660 l 1
 456 660 l 1
 456 819.864775396 l 1
 319.372680843 795.371229871 212.594749619 685.916360016 193.166040499 549 c 1
 349 549 l 1
 349 460 l 1
 193.025760093 460 l 1
 212.075261516 322.616836002 319.040213193 212.688372496 456 188.135224604 c 1
 456 339 l 1
 565 339 l 1
 565 186.958992357 l 1
EndSplineSet
EndChar

StartChar: H
Encoding: 72 72 7
Width: 1024
VWidth: 0
Flags: W
HStem: 889 20G<738.557 746.791>
LayerCount: 2
Back
Fore
SplineSet
755 909 m 1
 425 105 l 5
 94 105 l 1
 755 909 l 1
EndSplineSet
EndChar

StartChar: I
Encoding: 73 73 8
Width: 1024
VWidth: 0
Flags: W
HStem: 129 21G<274 714> 416 3<274 714> 883 20G<482.368 515.386>
LayerCount: 2
Back
Fore
SplineSet
274 419 m 1
 714 419 l 5
 714 129 l 5
 274 129 l 1
 274 419 l 1
499 903 m 25
 898 416 l 25
 94 416 l 25
 499 903 l 25
EndSplineSet
EndChar

StartChar: J
Encoding: 74 74 9
Width: 1024
VWidth: 0
Flags: W
HStem: 405 207<133 355 643 868> 405 104<399.853 598.147>
LayerCount: 2
Back
Fore
SplineSet
637.633612081 612 m 1x80
 868 612 l 1
 868 405 l 1
 133 405 l 1
 133 612 l 1
 360.366387919 612 l 1x80
 356.871875564 605.013816063 355 597.636499417 355 590 c 0
 355 545 420 509 499 509 c 0x40
 578 509 643 545 643 590 c 0
 643 597.636499417 641.128124436 605.013816063 637.633612081 612 c 1x80
EndSplineSet
EndChar

StartChar: K
Encoding: 75 75 10
Width: 1024
VWidth: 0
Flags: W
HStem: 901.509 20G<647.158 687.23>
LayerCount: 2
Back
Fore
SplineSet
603.676757812 710.979492188 m 5
 577.3828125 768.677734375 582.471679688 832.815429688 622.115234375 874.915039062 c 6
 665.991210938 921.508789062 l 5
 922.982421875 679.5078125 l 5
 879.107421875 632.915039062 l 6
 839.483398438 590.8359375 776.181640625 581.544921875 717.24609375 604.083984375 c 5
 295.826171875 156.55859375 l 5
 182.28125 263.48046875 l 5
 603.676757812 710.979492188 l 5
EndSplineSet
EndChar

StartChar: L
Encoding: 76 76 11
Width: 1024
VWidth: 0
Flags: W
HStem: 166 129<96 256.36 314 685.36 732 895> 344 129<96 469.36 524.935 895> 525 129<96 256.36 314 685.36 732 895> 703 129<96 469.36 524.935 895>
VStem: 96 373.36<344 473 703 832> 96 160.36<166 295 525 654> 314 371.36<166 295 525 654> 524.935 370.065<344 473 703 832> 732 163<166 295 525 654>
LayerCount: 2
Back
Fore
SplineSet
895 295 m 5xf080
 895 166 l 5
 732 166 l 1
 732 295 l 1
 895 295 l 5xf080
256.360351562 295 m 1xf4
 256.360351562 166 l 1
 96 166 l 1
 96 295 l 1
 256.360351562 295 l 1xf4
685.360351562 295 m 1xf2
 685.360351562 166 l 1
 314 166 l 1
 314 295 l 1
 685.360351562 295 l 1xf2
469.360351562 473 m 1xf8
 469.360351562 344 l 1
 96 344 l 1
 96 473 l 1
 469.360351562 473 l 1xf8
524.934570312 473 m 1xf1
 895 473 l 5
 895 344 l 5
 524.934570312 344 l 1
 524.934570312 473 l 1xf1
895 654 m 5xf080
 895 525 l 5
 732 525 l 1
 732 654 l 1
 895 654 l 5xf080
256.360351562 654 m 1xf4
 256.360351562 525 l 1
 96 525 l 1
 96 654 l 1
 256.360351562 654 l 1xf4
685.360351562 654 m 1xf2
 685.360351562 525 l 1
 314 525 l 1
 314 654 l 1
 685.360351562 654 l 1xf2
469.360351562 832 m 1xf8
 469.360351562 703 l 1
 96 703 l 1
 96 832 l 1
 469.360351562 832 l 1xf8
524.934570312 832 m 1xf1
 895 832 l 5
 895 703 l 5
 524.934570312 703 l 1
 524.934570312 832 l 1xf1
EndSplineSet
EndChar

StartChar: M
Encoding: 77 77 12
Width: 1024
VWidth: 0
Flags: W
HStem: 883 20G<859.749 900>
LayerCount: 2
Back
Fore
SplineSet
97 504 m 25
 900 903 l 29
 900 105 l 29
 97 504 l 25
EndSplineSet
EndChar

StartChar: N
Encoding: 78 78 13
Width: 1024
VWidth: 0
Flags: W
HStem: 886 20G<94 134>
LayerCount: 2
Back
Fore
SplineSet
898 504 m 25
 94 105 l 29
 94 906 l 29
 898 504 l 25
EndSplineSet
EndChar

StartChar: O
Encoding: 79 79 14
Width: 1024
VWidth: 0
Flags: W
HStem: 144 120<410.639 605.361> 763 116<394 585.536>
VStem: 355 150<389 469.896> 604 195<666.305 757.399>
LayerCount: 2
Back
Fore
SplineSet
528 330 m 29
 467 380 355 386 355 465 c 31
 355 600 604 570 604 705 c 31
 604 825 412 774 299 763 c 13
 394 879 l 21
 532 885 799 906 799 733 c 31
 799 568 505 567 505 402 c 31
 505 376 526 356 528 330 c 29
382 204 m 0
 382 237 438 264 508 264 c 0
 578 264 634 237 634 204 c 0
 634 171 578 144 508 144 c 0
 438 144 382 171 382 204 c 0
EndSplineSet
EndChar

StartChar: P
Encoding: 80 80 15
Width: 1024
VWidth: 0
Flags: W
HStem: 186 132<416.916 617.084> 913 20G<462.5 542>
VStem: 349 297<690.803 864.18>
LayerCount: 2
Back
Fore
SplineSet
502 411 m 27
 470 411 439 466 439 466 c 26
 382 656 l 26
 382 656 349 735.178235321 349 794 c 7
 349 873 423 933 502 933 c 27
 582 933 646 874 646 794 c 7
 646 739.796679069 611 656 611 656 c 26
 555 466 l 26
 555 466 546 411 502 411 c 27
382 252 m 0
 382 288 442 318 517 318 c 0
 592 318 652 288 652 252 c 0
 652 216 592 186 517 186 c 0
 442 186 382 216 382 252 c 0
EndSplineSet
EndChar

StartChar: Q
Encoding: 81 81 16
Width: 1024
VWidth: 0
Flags: W
HStem: 102 72.0225<162.003 541.997> 534.63 71.3701<162.003 541.997>
VStem: 94 68.0029<174.022 534.63> 541.997 65.0029<174.022 381.543>
LayerCount: 2
Back
Fore
SplineSet
94 102 m 1
 94 606 l 1
 607 606 l 1
 607 558.956043956 l 1
 694 645 l 1
 913 832 l 1
 937 739 l 1
 742 568 l 1
 607 444.312849162 l 1
 607 102 l 1
 94 102 l 1
162.002929688 174.022460938 m 1
 541.997070312 174.022460938 l 1
 541.997070312 381.543021334 l 1
 433 265 l 1
 361 183 l 1
 283 331 l 1
 199 423 l 1
 269 478 l 1
 326 412 l 1
 385 324 l 1
 512 465 l 1
 541.997070312 494.667432177 l 1
 541.997070312 534.629882812 l 1
 162.002929688 534.629882812 l 1
 162.002929688 174.022460938 l 1
EndSplineSet
EndChar

StartChar: R
Encoding: 82 82 17
Width: 1024
VWidth: 0
Flags: W
HStem: 861 7.16356<379.901 418.261>
LayerCount: 2
Back
Fore
SplineSet
335.867500987 850.27125543 m 5
 323 807 l 5
 343 729 l 5
 319 687 l 5
 334 651 l 5
 367 645 l 5
 439 504 l 5
 496 459 l 5
 572 384 l 5
 536 350 l 5
 553 318 l 5
 604 291 l 5
 598 219 l 5
 560 177 l 5
 555.837642795 123.748246192 l 5
 538.245208466 121.277582584 520.271160348 120 502 120 c 4
 290 120 118 292 118 504 c 4
 118 656.498760049 206.999865442 788.299876971 335.867500987 850.27125543 c 5
566.995210878 125.483238074 m 5
 582 163 l 5
 613 174 l 5
 643 198 l 5
 682 229 l 5
 729 257 l 5
 751 292 l 5
 769 327 l 5
 752 345 l 5
 745 366 l 5
 724 381 l 5
 694 423 l 5
 646 419 l 5
 592 393 l 5
 571 420 l 5
 590 458 l 5
 554 461 l 5
 556 508 l 5
 496 489 l 5
 478 522 l 5
 469 564 l 5
 490 594 l 5
 541 606 l 5
 576 600 l 5
 604 561 l 5
 622 696 l 5
 649 735 l 5
 646 753 l 5
 661 774 l 5
 604 795 l 5
 571 819 l 5
 544 765 l 5
 526 789 l 5
 490 789 l 5
 499 822 l 5
 538 846 l 5
 499 852 l 5
 439 861 l 5
 379.900665757 868.163555666 l 5
 418.261202556 881.02883216 459.320000367 888 502 888 c 4
 714 888 886 716 886 504 c 4
 886 314.151999099 748.066809524 156.381484354 566.995210878 125.483238074 c 5
EndSplineSet
EndChar

StartChar: S
Encoding: 83 83 18
Width: 1024
VWidth: 0
Flags: W
HStem: 246 510<93 138.698 556.603 899>
LayerCount: 2
Back
Fore
SplineSet
219 837 m 1
 477 837 l 1
 556.603448276 756 l 1
 899 756 l 1
 899 246 l 1
 93 246 l 1
 93 756 l 1
 138.698275862 756 l 1
 219 837 l 1
EndSplineSet
EndChar

StartChar: T
Encoding: 84 84 19
Width: 1024
VWidth: 0
Flags: W
HStem: 678 234<417.196 583.804>
VStem: 94 228<425.706 584.656> 676 234<416.884 584.656>
LayerCount: 2
Back
Fore
SplineSet
94 501 m 0
 94 728 277 912 502 912 c 0
 727 912 910 728 910 501 c 0
 910 359.754483144 839.14855375 235.157120326 731.413315604 161.175565898 c 1
 584 182 l 1
 598.01883593 354.129344991 l 1
 645.118124974 385.882636257 676 439.727674929 676 501 c 0
 676 599 597 678 499 678 c 0
 401 678 322 599 322 501 c 0
 322 424.528529246 385.103515625 359.625976562 452.80078125 334.80078125 c 1
 352 222 l 5
 429.282266258 96.5241773838 l 1
 238.862999122 131.106117396 94 299.033635304 94 501 c 0
EndSplineSet
EndChar

StartChar: U
Encoding: 85 85 20
Width: 1024
VWidth: 0
Flags: W
HStem: 632 271
LayerCount: 2
Back
Fore
SplineSet
499 903 m 25
 898 632 l 29
 94 632 l 29
 499 903 l 25
EndSplineSet
EndChar

StartChar: V
Encoding: 86 86 21
Width: 1024
VWidth: 0
Flags: W
HStem: 102 236
LayerCount: 2
Back
Fore
SplineSet
97 338 m 29
 895 338 l 29
 499 102 l 25
 97 338 l 29
EndSplineSet
EndChar

StartChar: W
Encoding: 87 87 22
Width: 1024
VWidth: 0
HStem: 456 165<427.447 593.876>
LayerCount: 2
Back
Fore
SplineSet
151 456 m 13
 907 456 l 21
 802 558 673 621 502 621 c 27
 351 621 238 549 151 456 c 13
EndSplineSet
EndChar

StartChar: X
Encoding: 88 88 23
Width: 1024
VWidth: 0
Flags: W
HStem: 594 309<598 898>
VStem: 598 300<594 903>
LayerCount: 2
Back
Fore
SplineSet
898 903 m 5
 898 594 l 5
 598 594 l 5
 598 903 l 5
 898 903 l 5
EndSplineSet
EndChar

StartChar: Y
Encoding: 89 89 24
Width: 1024
VWidth: 0
Flags: W
HStem: 883 20G<481 518.5>
LayerCount: 2
Back
Fore
SplineSet
499 903 m 9
 538 787 511 690 598 603 c 24
 685 516 781 544 898 504 c 25
 781 463 686 486 598 399 c 24
 512 314 536 220 496 105 c 25
 456 220 470 307 390 399 c 28
 321 478 244 463 148 504 c 25
 228 541 332 537 390 603 c 28
 477 702 463 795 499 903 c 9
EndSplineSet
EndChar

StartChar: Z
Encoding: 90 90 25
Width: 1024
VWidth: 0
Flags: W
HStem: 231 546<394.75 609.25>
VStem: 226 552<397.641 610.359>
LayerCount: 2
Back
Fore
SplineSet
226 504 m 4
 226 655 350 777 502 777 c 4
 654 777 778 655 778 504 c 4
 778 353 654 231 502 231 c 4
 350 231 226 353 226 504 c 4
EndSplineSet
EndChar

StartChar: a
Encoding: 97 97 26
Width: 1135
VWidth: 0
Flags: HW
HStem: 10 108<444.378 679.622> 244 414<470.948 653.052> 784 102<444.378 679.622>
VStem: 124 102<337.486 566.738> 352 420<361.398 540.602> 898 102<337.486 566.738>
CounterMasks: 1 1c
LayerCount: 2
Back
Fore
SplineSet
215.5 333.25 m 0
 215.5 418.75 286 488.5 373 488.5 c 0
 460 488.5 530.5 418.75 530.5 333.25 c 0
 530.5 247.75 460 178 373 178 c 0
 286 178 215.5 247.75 215.5 333.25 c 0
83.2001953125 333.25 m 4
 83.2001953125 174.549804688 213.4375 46.037109375 373 46.037109375 c 4
 532.5625 46.037109375 662.799804688 174.549804688 662.799804688 333.25 c 4
 662.799804688 491.950195312 532.5625 620.462890625 373 620.462890625 c 4
 213.4375 620.462890625 83.2001953125 491.950195312 83.2001953125 333.25 c 4
44.5 331 m 0
 44.5 512.5 191.5 659.5 373 659.5 c 0
 554.5 659.5 701.5 512.5 701.5 331 c 0
 701.5 149.5 554.5 2.5 373 2.5 c 0
 191.5 2.5 44.5 149.5 44.5 331 c 0
EndSplineSet
EndChar

StartChar: b
Encoding: 98 98 27
Width: 1135
VWidth: 0
Flags: HW
HStem: 10 108<444.378 679.622> 244 414<470.948 653.052> 784 102<444.378 679.622>
VStem: 124 102<337.486 566.738> 352 420<361.398 540.602> 898 102<337.486 566.738>
LayerCount: 2
Back
Fore
SplineSet
83.2001953125 333.25 m 0
 83.2001953125 174.549804688 213.4375 46.037109375 373 46.037109375 c 0
 532.5625 46.037109375 662.799804688 174.549804688 662.799804688 333.25 c 0
 662.799804688 491.950195312 532.5625 620.462890625 373 620.462890625 c 0
 213.4375 620.462890625 83.2001953125 491.950195312 83.2001953125 333.25 c 0
44.5 331 m 0
 44.5 512.5 191.5 659.5 373 659.5 c 0
 554.5 659.5 701.5 512.5 701.5 331 c 0
 701.5 149.5 554.5 2.5 373 2.5 c 0
 191.5 2.5 44.5 149.5 44.5 331 c 0
EndSplineSet
EndChar

StartChar: c
Encoding: 99 99 28
Width: 1024
VWidth: 0
Flags: HW
HStem: 114 84<244 805> 306 393<355 700> 804 102<244 805>
VStem: 148 96<198 804> 355 345<306 699> 805 102<198 804>
LayerCount: 2
Back
Fore
SplineSet
208.5 473.200195312 m 1
 484.5 473.200195312 l 1
 484.5 158.799804688 l 1
 208.5 158.799804688 l 1
 208.5 473.200195312 l 1
86.0400390625 593.560546875 m 5
 86.0400390625 36.0400390625 l 5
 602.16015625 36.0400390625 l 5
 602.16015625 593.560546875 l 5
 86.0400390625 593.560546875 l 5
42.900390625 638.799804688 m 1
 650.099609375 638.799804688 l 1
 650.099609375 5.2001953125 l 1
 42.900390625 5.2001953125 l 1
 42.900390625 638.799804688 l 1
EndSplineSet
EndChar

StartChar: d
Encoding: 100 100 29
Width: 1024
VWidth: 0
Flags: HW
HStem: 114 84<244 805> 306 393<355 700> 804 102<244 805>
VStem: 148 96<198 804> 355 345<306 699> 805 102<198 804>
LayerCount: 2
Back
Fore
SplineSet
86.0400390625 593.560546875 m 1
 86.0400390625 36.0400390625 l 1
 602.16015625 36.0400390625 l 1
 602.16015625 593.560546875 l 1
 86.0400390625 593.560546875 l 1
42.900390625 638.799804688 m 1
 650.099609375 638.799804688 l 1
 650.099609375 5.2001953125 l 1
 42.900390625 5.2001953125 l 1
 42.900390625 638.799804688 l 1
EndSplineSet
EndChar
